<svg width="32" height="32" viewBox="0 0 32 32" fill="none" xmlns="http://www.w3.org/2000/svg">
<g clip-path="url(#clip0_2061_5731)">
<path d="M27 0H5C2.23858 0 0 2.23858 0 5V27C0 29.7614 2.23858 32 5 32H27C29.7614 32 32 29.7614 32 27V5C32 2.23858 29.7614 0 27 0Z" fill="white"/>
<path d="M20.7891 22.249L25.2538 18.5027L27.127 20.735C28.1615 21.9679 28.0007 23.806 26.7678 24.8406C25.5349 25.8751 23.6968 25.7143 22.6622 24.4814L20.7891 22.249Z" fill="#FF4F26"/>
<path d="M5 16.9192C5 16.9192 7.34543 23.2621 15.5544 23.2621C23.7634 23.2621 26.1089 16.9192 26.1089 16.9192" stroke="black" stroke-width="3" stroke-linecap="round"/>
<path d="M17.9719 7.36721C18.7802 6.93285 19.6278 6.83673 20.4348 7.03518C21.1999 7.22342 21.8311 7.65139 22.3234 8.10158C23.2912 8.98666 24.0173 10.2308 24.4758 11.1455C24.7143 11.6213 24.8997 12.0492 25.0266 12.3584C25.0901 12.5133 25.1399 12.6403 25.174 12.7305C25.1911 12.7755 25.2046 12.812 25.2141 12.8379C25.2187 12.8507 25.222 12.8614 25.2248 12.8691C25.2262 12.8729 25.2278 12.8764 25.2287 12.8789L25.2297 12.8818L25.2307 12.8838C25.2283 12.8852 25.1725 12.9047 23.9768 13.3271L25.2307 12.8848C25.5062 13.6657 25.0966 14.5229 24.3156 14.7988C23.5347 15.0744 22.6775 14.6636 22.4016 13.8828C22.4005 13.88 22.3984 13.8745 22.3957 13.8672C22.3901 13.8517 22.381 13.8264 22.3684 13.793C22.3428 13.7256 22.3035 13.6236 22.2512 13.4961C22.1461 13.2399 21.9906 12.8841 21.7932 12.4902C21.3796 11.6651 20.8523 10.8215 20.299 10.3154C20.0313 10.0706 19.8347 9.97689 19.719 9.94827C19.6451 9.9301 19.5576 9.92132 19.3928 10.0098C18.932 10.2574 18.0478 11.1804 16.9973 13.8887C16.8528 14.3048 16.528 14.6544 16.0803 14.8125C15.2993 15.0881 14.4422 14.6783 14.1662 13.8975C14.1652 13.8947 14.1631 13.8892 14.1604 13.8818C14.1547 13.8665 14.1456 13.8409 14.133 13.8076C14.1075 13.7403 14.068 13.6381 14.0158 13.5107C13.9108 13.2545 13.7552 12.898 13.5578 12.5039C13.1443 11.6784 12.6171 10.8339 12.0637 10.3271C11.7956 10.0818 11.5985 9.98769 11.4826 9.959C11.4086 9.94075 11.3213 9.93204 11.1564 10.0205C10.6936 10.2692 9.80313 11.2001 8.74536 13.9414C8.44699 14.714 7.57864 15.0989 6.8059 14.8008C6.03323 14.5026 5.64861 13.6341 5.94653 12.8613C7.03871 10.0309 8.25327 8.17502 9.73754 7.37795C10.5461 6.94382 11.3935 6.84697 12.2004 7.04592C12.9656 7.23466 13.5968 7.66372 14.0891 8.11428C14.6665 8.64292 15.1562 9.30041 15.5559 9.93851C16.2854 8.71063 17.0792 7.84696 17.9719 7.36721Z" fill="black"/>
</g>
<defs>
<clipPath id="clip0_2061_5731">
<rect width="32" height="32" fill="white"/>
</clipPath>
</defs>
</svg>
