<svg width="19" height="18" viewBox="0 0 19 18" fill="none" xmlns="http://www.w3.org/2000/svg">
<path d="M9.5 16.3043C14.1944 16.3043 18 12.8784 18 8.65217C18 4.42599 14.1944 1 9.5 1C4.80558 1 1 4.42599 1 8.65217C1 10.578 1.79024 12.3377 3.09471 13.6827C3.53182 14.1334 3.84961 14.7328 3.67878 15.337C3.51263 15.9246 3.21883 16.4601 2.82825 16.9128C2.97559 16.9387 3.125 16.959 3.2758 16.9734C3.45911 16.991 3.64518 17 3.83333 17C5.04412 17 6.16626 16.627 7.08711 15.9916C7.852 16.1951 8.66183 16.3043 9.5 16.3043Z" stroke="black" stroke-linecap="round" stroke-linejoin="round"/>
</svg>
