<svg width="21" height="24" viewBox="0 0 21 24" fill="none" xmlns="http://www.w3.org/2000/svg">
<path d="M18.4506 8.37683C18.4506 8.37683 17.8422 16.8313 17.4893 20.3926C17.3212 22.0936 16.3834 23.0903 14.8473 23.1217C11.9242 23.1807 8.99765 23.1844 6.07561 23.1154C4.59778 23.0815 3.67568 22.0722 3.51098 20.4014C3.15581 16.8087 2.55078 8.37683 2.55078 8.37683" stroke="#FF4F26" stroke-width="1.5" stroke-linecap="round" stroke-linejoin="round"/>
<path d="M20 5.37973H1" stroke="#FF4F26" stroke-width="1.5" stroke-linecap="round" stroke-linejoin="round"/>
<path d="M16.3387 5.37976C15.4592 5.37976 14.7018 4.68307 14.5293 3.71774L14.257 2.19129C14.0889 1.48706 13.5198 1 12.871 1H8.12833C7.47961 1 6.91044 1.48706 6.74238 2.19129L6.47011 3.71774C6.29757 4.68307 5.54017 5.37976 4.66064 5.37976" stroke="#FF4F26" stroke-width="1.5" stroke-linecap="round" stroke-linejoin="round"/>
<path d="M8.38916 11.5557L8.38916 17.889" stroke="#FF4F26" stroke-width="1.5" stroke-linecap="round"/>
<path d="M12.6108 11.5557L12.6108 17.889" stroke="#FF4F26" stroke-width="1.5" stroke-linecap="round"/>
</svg>
