<svg width="22" height="17" viewBox="0 0 22 17" fill="none" xmlns="http://www.w3.org/2000/svg">
<path d="M11.0004 11.5909C12.6932 11.5909 14.0655 10.2071 14.0655 8.5C14.0655 6.79294 12.6932 5.40909 11.0004 5.40909C9.30754 5.40909 7.93523 6.79294 7.93523 8.5C7.93523 10.2071 9.30754 11.5909 11.0004 11.5909Z" fill="#969696"/>
<path fill-rule="evenodd" clip-rule="evenodd" d="M0.0919669 7.92993C1.61151 3.32346 5.92032 0 11.0009 0C16.0791 0 20.3863 3.32037 21.9077 7.9235C22.0307 8.2955 22.0308 8.698 21.908 9.07007C20.3885 13.6765 16.0797 17 10.9991 17C5.9209 17 1.61373 13.6796 0.0923016 9.0765C-0.0306528 8.7045 -0.0307698 8.302 0.0919669 7.92993ZM16.3644 8.5C16.3644 11.4874 13.9628 13.9091 11.0004 13.9091C8.03792 13.9091 5.63638 11.4874 5.63638 8.5C5.63638 5.51264 8.03792 3.09091 11.0004 3.09091C13.9628 3.09091 16.3644 5.51264 16.3644 8.5Z" fill="#969696"/>
</svg>
