<svg width="22" height="20" viewBox="0 0 22 20" fill="none" xmlns="http://www.w3.org/2000/svg">
<path d="M2.29693 0.21967C2.00404 -0.0732233 1.52916 -0.0732233 1.23627 0.21967C0.943378 0.512563 0.943378 0.987437 1.23627 1.28033L19.2363 19.2803C19.5292 19.5732 20.004 19.5732 20.2969 19.2803C20.5898 18.9874 20.5898 18.5126 20.2969 18.2197L2.29693 0.21967Z" fill="#969696"/>
<path d="M21.4425 10.3033C20.8985 11.9387 19.9892 13.4075 18.8113 14.6127L15.7128 11.5142C15.9095 10.9629 16.0166 10.3689 16.0166 9.75C16.0166 6.8505 13.6661 4.5 10.7666 4.5C10.1477 4.5 9.55375 4.6071 9.00237 4.80379L6.52558 2.327C7.83444 1.79381 9.26638 1.5 10.7671 1.5C15.7374 1.5 19.9531 4.72272 21.4421 9.19045C21.5625 9.55152 21.5626 9.94217 21.4425 10.3033Z" fill="#969696"/>
<path d="M14.5166 9.75C14.5166 9.93017 14.5039 10.1074 14.4793 10.2808L10.2359 6.03727C10.4092 6.0127 10.5864 6 10.7666 6C12.8377 6 14.5166 7.67893 14.5166 9.75Z" fill="#969696"/>
<path d="M11.2974 13.4627L7.05387 9.21925C7.02931 9.39263 7.0166 9.56983 7.0166 9.75C7.0166 11.8211 8.69553 13.5 10.7666 13.5C10.9468 13.5 11.124 13.4873 11.2974 13.4627Z" fill="#969696"/>
<path d="M5.5166 9.75C5.5166 9.13107 5.6237 8.53715 5.82039 7.98577L2.72153 4.8869C1.54347 6.09222 0.634074 7.56114 0.0900125 9.1967C-0.0301159 9.55783 -0.0300014 9.94849 0.0903401 10.3095C1.57944 14.7773 5.79507 18 10.7654 18C12.2663 18 13.6984 17.7061 15.0074 17.1728L12.5308 14.6962C11.9795 14.8929 11.3855 15 10.7666 15C7.86711 15 5.5166 12.6495 5.5166 9.75Z" fill="#969696"/>
</svg>
