<svg width="5" height="25" viewBox="0 0 5 25" fill="none" xmlns="http://www.w3.org/2000/svg">
<path d="M2.75 3.5C3.44036 3.5 4 2.94036 4 2.25C4 1.55964 3.44036 1 2.75 1C2.05964 1 1.5 1.55964 1.5 2.25C1.5 2.94036 2.05964 3.5 2.75 3.5Z" fill="black"/>
<path d="M2.75 13.5C3.44036 13.5 4 12.9404 4 12.25C4 11.5596 3.44036 11 2.75 11C2.05964 11 1.5 11.5596 1.5 12.25C1.5 12.9404 2.05964 13.5 2.75 13.5Z" fill="black"/>
<path d="M2.75 23.5C3.44036 23.5 4 22.9404 4 22.25C4 21.5596 3.44036 21 2.75 21C2.05964 21 1.5 21.5596 1.5 22.25C1.5 22.9404 2.05964 23.5 2.75 23.5Z" fill="black"/>
<path d="M2.75 3.5C3.44036 3.5 4 2.94036 4 2.25C4 1.55964 3.44036 1 2.75 1C2.05964 1 1.5 1.55964 1.5 2.25C1.5 2.94036 2.05964 3.5 2.75 3.5Z" stroke="black" stroke-width="1.5" stroke-linecap="round" stroke-linejoin="round"/>
<path d="M2.75 13.5C3.44036 13.5 4 12.9404 4 12.25C4 11.5596 3.44036 11 2.75 11C2.05964 11 1.5 11.5596 1.5 12.25C1.5 12.9404 2.05964 13.5 2.75 13.5Z" stroke="black" stroke-width="1.5" stroke-linecap="round" stroke-linejoin="round"/>
<path d="M2.75 23.5C3.44036 23.5 4 22.9404 4 22.25C4 21.5596 3.44036 21 2.75 21C2.05964 21 1.5 21.5596 1.5 22.25C1.5 22.9404 2.05964 23.5 2.75 23.5Z" stroke="black" stroke-width="1.5" stroke-linecap="round" stroke-linejoin="round"/>
</svg>
