<svg width="30" height="30" viewBox="0 0 30 30" fill="none" xmlns="http://www.w3.org/2000/svg">
<path d="M28.0375 13.25L25.5 10.7143V4.5C25.5 3.5375 24.7125 2.75 23.75 2.75H22C21.0375 2.75 20.25 3.5375 20.25 4.5V5.46775L16.75 1.97125C16.2722 1.51975 15.8347 1 15 1C14.1653 1 13.7278 1.51975 13.25 1.97125L1.9625 13.25C1.4165 13.8187 1 14.2335 1 15C1 15.9853 1.756 16.75 2.75 16.75H4.5V27.25C4.5 28.2125 5.2875 29 6.25 29H9.75C10.7165 29 11.5 28.2165 11.5 27.25V21C11.5 20.0375 12.2875 19.25 13.25 19.25H16.75C17.7125 19.25 18.5 20.0375 18.5 21V27.25C18.5 28.2165 18.4085 29 19.375 29H23.75C24.7125 29 25.5 28.2125 25.5 27.25V16.75H27.25C28.244 16.75 29 15.9853 29 15C29 14.2335 28.5835 13.8187 28.0375 13.25Z" stroke="black" stroke-width="1.5" stroke-linejoin="round"/>
</svg>
