<svg width="26" height="26" viewBox="0 0 26 26" fill="none" xmlns="http://www.w3.org/2000/svg">
<path fill-rule="evenodd" clip-rule="evenodd" d="M26 13C26 16.4856 24.6281 19.6508 22.3951 21.9852C20.0365 24.4506 16.7174 25.9892 13.0388 26C13.0259 26 13.0129 26 13 26C12.9871 26 12.9741 26 12.9612 26C9.28256 25.9892 5.9634 24.4506 3.60496 21.9852C1.3718 19.6508 0 16.4856 0 13C0 5.8203 5.8203 0 13 0C20.1797 0 26 5.8203 26 13ZM20.8795 19.5C19.0062 17.2314 16.1719 15.7857 13 15.7857C9.82811 15.7857 6.99389 17.2314 5.12042 19.5C6.99389 21.7685 9.82811 23.2143 13 23.2143C16.1719 23.2143 19.0062 21.7685 20.8795 19.5ZM13.0002 13.9285C15.5644 13.9285 17.6431 11.8498 17.6431 9.28566C17.6431 6.72148 15.5644 4.6428 13.0002 4.6428C10.436 4.6428 8.35737 6.72148 8.35737 9.28566C8.35737 11.8498 10.436 13.9285 13.0002 13.9285Z" fill="white"/>
</svg>
