<svg width="28" height="28" viewBox="0 0 28 28" fill="none" xmlns="http://www.w3.org/2000/svg">
<path fill-rule="evenodd" clip-rule="evenodd" d="M28 14C28 17.7537 26.5226 21.1624 24.1178 23.6764C21.5778 26.3314 18.0034 27.9884 14.0418 28C14.0279 28 14.0139 28 14 28C13.9861 28 13.9721 28 13.9582 28C9.9966 27.9884 6.42212 26.3314 3.88226 23.6764C1.47732 21.1624 0 17.7537 0 14C0 6.26802 6.26802 0 14 0C21.732 0 28 6.26802 28 14ZM22.4856 21C20.4682 18.5569 17.4159 16.9999 14 16.9999C10.5841 16.9999 7.53188 18.5569 5.5143 21C7.53188 23.443 10.5841 25 14 25C17.4159 25 20.4682 23.443 22.4856 21ZM14.0002 14.9999C16.7617 14.9999 19.0002 12.7614 19.0002 9.99994C19.0002 7.23852 16.7617 4.99994 14.0002 4.99994C11.2388 4.99994 9.00024 7.23852 9.00024 9.99994C9.00024 12.7614 11.2388 14.9999 14.0002 14.9999Z" fill="black"/>
</svg>
