<svg width="30" height="30" viewBox="0 0 30 30" fill="none" xmlns="http://www.w3.org/2000/svg">
<path d="M15 17.1538C17.9739 17.1538 20.3846 14.7431 20.3846 11.7692C20.3846 8.79539 17.9739 6.38461 15 6.38461C12.0262 6.38461 9.61542 8.79539 9.61542 11.7692C9.61542 14.7431 12.0262 17.1538 15 17.1538Z" stroke="black" stroke-width="1.5" stroke-linecap="round" stroke-linejoin="round"/>
<path d="M5.80304 25.5538C6.76418 23.9762 8.11499 22.6723 9.72564 21.7675C11.3363 20.8628 13.1526 20.3875 15 20.3875C16.8473 20.3875 18.6636 20.8628 20.2743 21.7675C21.8849 22.6723 23.2358 23.9762 24.1969 25.5538" stroke="black" stroke-width="1.5" stroke-linecap="round" stroke-linejoin="round"/>
<path d="M15 29C22.732 29 29 22.732 29 15C29 7.26801 22.732 1 15 1C7.26801 1 1 7.26801 1 15C1 22.732 7.26801 29 15 29Z" stroke="black" stroke-width="1.5" stroke-linecap="round" stroke-linejoin="round"/>
</svg>
