<svg width="28" height="30" viewBox="0 0 28 30" fill="none" xmlns="http://www.w3.org/2000/svg">
<path d="M26.3426 26.6092C26.3765 26.9113 26.3461 27.2173 26.2533 27.5068C26.1605 27.7964 26.0074 28.063 25.8042 28.2892C25.6004 28.515 25.351 28.6951 25.0726 28.8176C24.7942 28.9401 24.493 29.0022 24.1888 28.9999H3.16728C2.8631 29.0022 2.56188 28.9401 2.28345 28.8176C2.00502 28.6951 1.7557 28.515 1.5519 28.2892C1.34865 28.063 1.19558 27.7964 1.10278 27.5068C1.00997 27.2173 0.979524 26.9113 1.01344 26.6092L2.90882 9.61536H24.4472L26.3426 26.6092Z" stroke="black" stroke-width="1.5" stroke-linecap="round" stroke-linejoin="round"/>
<path d="M8.2934 9.61537V6.3846C8.2934 4.95652 8.8607 3.58692 9.87051 2.57711C10.8803 1.5673 12.2499 1 13.678 1C15.1061 1 16.4757 1.5673 17.4855 2.57711C18.4953 3.58692 19.0626 4.95652 19.0626 6.3846V9.61537" stroke="black" stroke-width="1.5" stroke-linecap="round" stroke-linejoin="round"/>
</svg>
