<svg width="26" height="28" viewBox="0 0 26 28" fill="none" xmlns="http://www.w3.org/2000/svg">
<path d="M24.5656 24.8135C24.5972 25.0945 24.5689 25.379 24.4826 25.6482C24.3963 25.9175 24.2539 26.1654 24.0649 26.3757C23.8754 26.5857 23.6436 26.7532 23.3847 26.8671C23.1258 26.981 22.8457 27.0388 22.5628 27.0366H3.0154C2.73255 27.0388 2.45245 26.981 2.19355 26.8671C1.93464 26.7532 1.7028 26.5857 1.51329 26.3757C1.32429 26.1654 1.18196 25.9175 1.09566 25.6482C1.00936 25.379 0.981051 25.0945 1.01259 24.8135L2.77506 9.01135H22.8032L24.5656 24.8135Z" fill="white" stroke="white" stroke-width="1.5" stroke-linecap="round" stroke-linejoin="round"/>
<path d="M7.78214 9.01124V6.00703C7.78214 4.67908 8.30966 3.40552 9.24866 2.46652C10.1877 1.52752 11.4612 1 12.7892 1C14.1171 1 15.3907 1.52752 16.3297 2.46652C17.2687 3.40552 17.7962 4.67908 17.7962 6.00703V9.01124" stroke="white" stroke-width="1.5" stroke-linecap="round" stroke-linejoin="round"/>
</svg>
