<svg width="30" height="30" viewBox="0 0 30 30" fill="none" xmlns="http://www.w3.org/2000/svg">
<path d="M5.31992 29.0652H24.7514" stroke="black" stroke-width="1.5" stroke-linecap="round" stroke-linejoin="round"/>
<path d="M28.9184 7.25872C28.6989 6.35326 28.2477 5.5204 27.6093 4.84182C26.9708 4.16324 26.167 3.66224 25.2766 3.38793C24.3862 3.11362 23.4398 3.07543 22.5301 3.2771C21.6205 3.47877 20.7789 3.91338 20.0879 4.53831C19.7107 3.50134 19.0235 2.60555 18.1197 1.97255C17.2159 1.33955 16.1392 1 15.0357 1C13.9323 1 12.8555 1.33955 11.9517 1.97255C11.0479 2.60555 10.3607 3.50134 9.98352 4.53831C9.29247 3.91338 8.45088 3.47877 7.54126 3.2771C6.63164 3.07543 5.68523 3.11362 4.79482 3.38793C3.90441 3.66224 3.10057 4.16324 2.46213 4.84182C1.82369 5.5204 1.37256 6.35326 1.15298 7.25872C0.981432 7.96532 0.953835 8.69922 1.07183 9.41671C1.18983 10.1342 1.45102 10.8206 1.83983 11.4351C2.22864 12.0495 2.73713 12.5794 3.33501 12.9932C3.9329 13.4071 4.60795 13.6963 5.31996 13.8438V21.5085C5.31996 22.0811 5.54743 22.6303 5.95233 23.0352C6.35723 23.4401 6.9064 23.6675 7.47901 23.6675H22.5924C23.165 23.6675 23.7142 23.4401 24.1191 23.0352C24.524 22.6303 24.7515 22.0811 24.7515 21.5085V13.8438C25.4635 13.6963 26.1385 13.4071 26.7364 12.9932C27.3343 12.5794 27.8428 12.0495 28.2316 11.4351C28.6204 10.8206 28.8816 10.1342 28.9996 9.41671C29.1176 8.69922 29.09 7.96532 28.9184 7.25872V7.25872Z" stroke="black" stroke-width="1.5" stroke-linecap="round" stroke-linejoin="round"/>
<path d="M4.56641 18.2699H25.5064" stroke="black" stroke-width="1.5" stroke-linejoin="round"/>
</svg>
