<svg width="28" height="28" viewBox="0 0 28 28" fill="none" xmlns="http://www.w3.org/2000/svg">
<path d="M5.01666 27.0972H23.0856" stroke="white" stroke-width="1.5" stroke-linecap="round" stroke-linejoin="round"/>
<path d="M26.9607 6.81985C26.7566 5.97788 26.3371 5.20342 25.7434 4.57243C25.1497 3.94143 24.4022 3.47556 23.5743 3.22048C22.7463 2.96541 21.8662 2.9299 21.0204 3.11743C20.1746 3.30496 19.392 3.70909 18.7494 4.2902C18.3987 3.32594 17.7597 2.49296 16.9192 1.90435C16.0788 1.31574 15.0776 1 14.0515 1C13.0254 1 12.0242 1.31574 11.1838 1.90435C10.3433 2.49296 9.70433 3.32594 9.35358 4.2902C8.71099 3.70909 7.92841 3.30496 7.08258 3.11743C6.23674 2.9299 5.35669 2.96541 4.52872 3.22048C3.70074 3.47556 2.95327 3.94143 2.3596 4.57243C1.76593 5.20342 1.34643 5.97788 1.14226 6.81985C0.982734 7.4769 0.957072 8.15934 1.0668 8.82652C1.17652 9.4937 1.41939 10.132 1.78094 10.7033C2.14249 11.2747 2.61532 11.7674 3.17128 12.1523C3.72724 12.5371 4.35495 12.8061 5.01704 12.9432V20.0704C5.01704 20.6029 5.22856 21.1135 5.60506 21.49C5.98157 21.8665 6.49223 22.078 7.02469 22.078H21.0783C21.6108 22.078 22.1214 21.8665 22.4979 21.49C22.8744 21.1135 23.086 20.6029 23.086 20.0704V12.9432C23.748 12.8061 24.3758 12.5371 24.9317 12.1523C25.4877 11.7674 25.9605 11.2747 26.3221 10.7033C26.6836 10.132 26.9265 9.4937 27.0362 8.82652C27.1459 8.15934 27.1203 7.4769 26.9607 6.81985Z" fill="white" stroke="white" stroke-width="1.5" stroke-linecap="round" stroke-linejoin="round"/>
<path d="M4.31635 17.059H23.788" stroke="#FF4F26" stroke-width="1.5" stroke-linejoin="round"/>
</svg>
