<svg width="25" height="24" viewBox="0 0 25 24" fill="none" xmlns="http://www.w3.org/2000/svg">
<path d="M11.923 1.35969C12.159 0.880104 12.841 0.880104 13.077 1.35969L16.1322 7.56796C16.2259 7.7584 16.4071 7.8904 16.6167 7.92094L23.4484 8.91648C23.9761 8.99338 24.1869 9.64378 23.805 10.0171L18.8615 14.8496C18.7099 14.9978 18.6407 15.2114 18.6765 15.4207L19.8435 22.2442C19.9336 22.7713 19.3819 23.1733 18.9099 22.9244L12.7994 19.7028C12.612 19.604 12.388 19.604 12.2006 19.7028L6.09011 22.9244C5.61808 23.1733 5.06639 22.7713 5.15654 22.2442L6.32354 15.4207C6.35934 15.2114 6.29014 14.9978 6.13849 14.8496L1.19501 10.0171C0.813128 9.64378 1.02385 8.99338 1.5516 8.91648L8.38333 7.92094C8.59289 7.8904 8.77406 7.7584 8.86778 7.56796L11.923 1.35969Z" fill="#F1C657" stroke="#F1C657" stroke-width="1.5" stroke-linejoin="round"/>
</svg>
