<svg width="21" height="24" viewBox="0 0 21 24" fill="none" xmlns="http://www.w3.org/2000/svg">
<path d="M18.4505 8.37683C18.4505 8.37683 17.8421 16.8313 17.4892 20.3926C17.3211 22.0936 16.3833 23.0903 14.8472 23.1217C11.9241 23.1807 8.99753 23.1844 6.07549 23.1154C4.59766 23.0815 3.67556 22.0722 3.51086 20.4014C3.15568 16.8087 2.55066 8.37683 2.55066 8.37683" stroke="#FF4F26" stroke-width="1.5" stroke-linecap="round" stroke-linejoin="round"/>
<path d="M20 5.37967H1" stroke="#FF4F26" stroke-width="1.5" stroke-linecap="round" stroke-linejoin="round"/>
<path d="M16.3389 5.37976C15.4593 5.37976 14.7019 4.68307 14.5294 3.71774L14.2571 2.19129C14.0891 1.48706 13.5199 1 12.8712 1H8.12845C7.47973 1 6.91056 1.48706 6.7425 2.19129L6.47024 3.71774C6.29769 4.68307 5.54029 5.37976 4.66077 5.37976" stroke="#FF4F26" stroke-width="1.5" stroke-linecap="round" stroke-linejoin="round"/>
<path d="M8.38892 11.5556L8.38892 17.8889" stroke="#FF4F26" stroke-width="1.5" stroke-linecap="round"/>
<path d="M12.6111 11.5556L12.6111 17.8889" stroke="#FF4F26" stroke-width="1.5" stroke-linecap="round"/>
</svg>
